<svg aria-hidden="true" style="position: absolute; width: 0; height: 0; overflow: hidden;" version="1.1" xmlns="http://www.w3.org/2000/svg" xmlns:xlink="http://www.w3.org/1999/xlink">
<defs>
<symbol id="icon-gerbmou" viewBox="0 0 32 32">

<path d="M15.665 7.524c-0.462 0.589-0.852 1.441-1.033 2.266-0.136 0.598-0.145 0.861-0.054 2.266 0.063 0.87 0.136 2.538 0.172 3.69l0.054 2.112h-1.178c-0.644 0-1.197-0.018-1.215-0.045-0.027-0.018 0-0.417 0.073-0.879 0.526-3.807 0-6.282-1.568-7.406-0.281-0.199-0.553-0.372-0.598-0.372-0.036 0-0.073 2.484-0.073 5.53v5.53h4.324l0.408 0.834c0.435 0.888 0.916 1.614 1.070 1.614 0.145 0 0.961-1.305 1.197-1.904l0.209-0.544h4.397v-5.53c0-3.046-0.036-5.53-0.073-5.53-0.154 0-0.925 0.562-1.197 0.87-0.354 0.408-0.761 1.224-0.952 1.904-0.227 0.834-0.281 2.919-0.1 4.424 0.082 0.689 0.145 1.314 0.145 1.378 0 0.172-2.348 0.181-2.366 0.009-0.027-0.335 0.027-2.275 0.127-4.233 0.136-2.774 0.118-3.409-0.118-4.215-0.209-0.689-0.761-1.695-1.106-2.012l-0.209-0.19-0.335 0.435z"></path>
</symbol>
</defs>
</svg>
